Coordinates
version=1
nRows=15
nColumns=42
inDegrees=yes

Units are S.I. units (second, meters, Newtons, ...)
If the header above contains a line with 'inDegrees', this indicates whether rotational values are in degrees (yes) or radians (no).

endheader
time	pelvis_tilt	pelvis_list	pelvis_rotation	pelvis_tx	pelvis_ty	pelvis_tz	hip_flexion_r	hip_adduction_r	hip_rotation_r	knee_angle_r	knee_adduction_r	knee_angle_r_beta	ankle_angle_r	subtalar_angle_r	mtp_angle_r	hip_flexion_l	hip_adduction_l	hip_rotation_l	knee_angle_l	knee_adduction_l	knee_angle_l_beta	ankle_angle_l	subtalar_angle_l	mtp_angle_l	lumbar_extension	lumbar_bending	lumbar_rotation	arm_flex_r	arm_add_r	arm_rot_r	elbow_flex_r	pro_sup_r	wrist_flex_r	wrist_dev_r	arm_flex_l	arm_add_l	arm_rot_l	elbow_flex_l	pro_sup_l	wrist_flex_l	wrist_dev_l
      2.05000000	      6.82608912	      6.02080677	     -3.19590178	     -0.49214518	      0.98032405	      0.31914368	    -19.03514792	     -9.92215537	    -16.43164197	     25.84786495	      1.47132970	      0.45113035	      6.00285288	      7.45575964	     -7.57572500	      8.04630771	      5.51757191	    -13.67012919	      3.55152330	     -1.11389156	      0.06198577	     -8.32880872	     11.16073865	     -7.57572500	    -16.79980641	    -11.26908427	      5.10461581	     23.58072961	    -17.71209637	     29.07787008	     37.29817406	     90.00000001	      0.00000000	      0.00000000	    -17.16860418	    -14.47065509	      8.32354479	     39.91790205	     90.00000001	      0.00000000	      0.00000000
      2.06000000	      6.90623642	      6.13914719	     -3.11597714	     -0.48284364	      0.98214598	      0.31702880	    -18.37199799	    -10.68309460	    -16.93344644	     28.22711729	      1.54497619	      0.49265614	      3.83113815	      6.81444361	     -7.57458845	      7.22084622	      5.84020886	    -13.72410715	      3.27385166	     -1.07094281	      0.05713949	     -7.95002937	     11.63569539	     -7.57458845	    -16.90044674	    -11.44063635	      4.84348585	     22.83588498	    -17.68906824	     28.97981334	     37.33463553	     90.00000001	      0.00000000	      0.00000000	    -16.62611946	    -14.67509337	      8.63864751	     39.70115450	     90.00000001	      0.00000000	      0.00000000
      2.07000000	      6.94756029	      6.26159882	     -2.97448713	     -0.47375856	      0.98388664	      0.31487033	    -17.52344586	    -11.44360745	    -17.44468572	     30.80363673	      1.56290812	      0.53762488	      1.57516762	      5.98188580	     -7.57331554	      6.48781222	      6.19430519	    -13.73158696	      3.06641150	     -1.07857758	      0.05351898	     -7.51799540	     12.10387374	     -7.57331554	    -16.98466902	    -11.59601243	      4.52153581	     22.05644671	    -17.63043752	     28.82824531	     37.40398894	     90.00000001	      0.00000000	      0.00000000	    -16.02234028	    -14.94168111	      9.10037945	     39.53897872	     90.00000001	      0.00000000	      0.00000000
      2.08000000	      6.83298234	      6.40194016	     -2.74810790	     -0.46508134	      0.98530184	      0.31251434	    -16.35117761	    -12.28787844	    -17.81835465	     33.65156755	      1.71858782	      0.58733065	     -0.69564843	      4.55079192	     -7.57078150	      6.03482853	      6.59566756	    -13.66899210	      2.99466701	     -1.18314499	      0.05226680	     -7.11336472	     12.57402915	     -7.57078150	    -16.95579652	    -11.73403973	      4.15993425	     21.24600182	    -17.57061722	     28.49477197	     37.50564705	     90.00000001	      0.00000000	      0.00000000	    -15.35138912	    -15.36550720	     10.02337383	     39.45647976	     90.00000001	      0.00000000	      0.00000000
      2.09000000	      6.85253816	      6.45988896	     -2.56651889	     -0.45649595	      0.98682674	      0.31030392	    -15.22120686	    -13.00248445	    -18.07765794	     36.54153502	      1.74617079	      0.63777010	     -3.21308910	      2.84280930	     -7.56794388	      5.40277069	      6.87727193	    -13.46560061	      2.91808813	     -1.19502550	      0.05093025	     -6.62548234	     12.90806224	     -7.56794388	    -17.07152164	    -11.78398629	      3.87197590	     20.43279773	    -17.56895587	     28.25062376	     37.54049151	     90.00000001	      0.00000000	      0.00000000	    -14.62386873	    -15.73501540	     10.77105102	     39.37972074	     90.00000001	      0.00000000	      0.00000000
      2.10000000	      7.14687547	      6.40438306	     -2.49663213	     -0.44818769	      0.98871756	      0.30856383	    -14.29346670	    -13.52289933	    -18.43211853	     39.29497860	      1.43983052	      0.68582676	     -5.47136159	      1.87008566	     -7.56686018	      4.37522474	      6.96733022	    -13.34875864	      2.65791667	     -1.06799709	      0.04638940	     -5.91874149	     13.18253246	     -7.56686018	    -17.52916678	    -11.77532910	      3.63545700	     19.77931784	    -17.52991126	     28.21163659	     37.48458016	     90.00000001	      0.00000000	      0.00000000	    -13.76593617	    -16.00739744	     11.01401096	     39.30291850	     90.00000001	      0.00000000	      0.00000000
      2.11000000	      7.29695823	      6.41602517	     -2.33746220	     -0.44020241	      0.99020849	      0.30663043	    -13.07979625	    -14.13504851	    -18.79060937	     42.22569241	      1.14201316	      0.73697736	     -7.67305479	      0.47549053	     -7.56575993	      3.58482531	      7.15492553	    -13.10141777	      2.49200135	     -1.02028837	      0.04349363	     -5.37596072	     13.51618577	     -7.56575993	    -17.86160230	    -11.79009920	      3.33096513	     19.08101542	    -17.50396933	     28.13981455	     37.48750183	     90.00000001	      0.00000000	      0.00000000	    -12.87650301	    -16.34124301	     11.42904162	     39.25062569	     90.00000001	      0.00000000	      0.00000000
      2.12000000	      7.12385710	      6.42122822	     -2.06263782	     -0.43275866	      0.99113462	      0.30437204	    -11.47012814	    -14.77304125	    -18.14246384	     45.23016542	      1.71657420	      0.78941531	    -10.10090650	     -3.29728198	     -7.56141263	      3.29099840	      7.40093468	    -12.76313900	      2.49561028	     -1.14761987	      0.04355662	     -5.07789476	     13.40712118	     -7.56141263	    -17.88719935	    -11.72962307	      3.01303662	     18.30762538	    -17.47873236	     27.77875708	     37.52919070	     90.00000001	      0.00000000	      0.00000000	    -11.88660497	    -16.88461925	     12.75470732	     39.27146739	     90.00000001	      0.00000000	      0.00000000
      2.13000000	      7.48429704	      6.33536113	     -1.95501162	     -0.42518660	      0.99272983	      0.30284801	    -10.39553095	    -15.15844875	    -18.39982053	     47.92722143	      1.24913173	      0.83648782	    -11.43918699	     -4.04788976	     -7.56061872	      2.23880199	      7.39897024	    -12.56800604	      2.26754758	     -0.96221787	      0.03957617	     -4.50632892	     13.75951799	     -7.56061872	    -18.49135548	    -11.66926618	      2.70403008	     17.72784530	    -17.40832177	     27.81659756	     37.44137226	     90.00000001	      0.00000000	      0.00000000	    -10.87868627	    -17.18842967	     12.87944886	     39.23012938	     90.00000001	      0.00000000	      0.00000000
      2.14000000	      7.60143543	      6.36265440	     -1.80938770	     -0.41785050	      0.99371474	      0.30106197	     -8.93133223	    -15.70173590	    -18.73427632	     50.72669082	      0.71984224	      0.88534777	    -12.81264194	     -5.44929260	     -7.55972954	      1.50637452	      7.60313119	    -12.41756303	      2.04130240	     -0.96967720	      0.03562745	     -4.04745520	     14.14348063	     -7.55972954	    -18.80575166	    -11.67930785	      2.40488469	     17.08060250	    -17.37563058	     27.83662948	     37.41603782	     90.00000001	      0.00000000	      0.00000000	     -9.81465877	    -17.54387899	     13.27412760	     39.17432663	     90.00000001	      0.00000000	      0.00000000
      2.15000000	      7.20671704	      6.48435210	     -1.54847066	     -0.41112808	      0.99381355	      0.29890674	     -6.81846126	    -16.41774354	    -18.13490999	     53.66264140	      1.11275477	      0.93658978	    -14.37162610	     -8.74705705	     -7.55713195	      1.56751954	      7.97116052	    -12.38400920	      2.12684620	     -1.18796494	      0.03712047	     -3.76071466	     14.33448178	     -7.55713195	    -18.61033477	    -11.72803543	      2.09315418	     16.31827050	    -17.36059976	     27.64416132	     37.43125474	     90.00000001	      0.00000000	      0.00000000	     -8.69221868	    -18.13293522	     14.66070363	     39.21846552	     90.00000001	      0.00000000	      0.00000000
      2.16000000	      7.29941375	      6.46912802	     -1.44614329	     -0.40427506	      0.99464498	      0.29740670	     -5.26856065	    -16.80833608	    -17.85190418	     56.14928714	      0.97380605	      0.97998993	    -15.10857494	    -10.57887043	     -7.55426829	      0.92758892	      8.06981996	    -12.43418900	      1.98578396	     -1.14695130	      0.03465847	     -3.30187769	     14.71933626	     -7.55426829	    -18.92250040	    -11.70335728	      1.86927821	     15.68138438	    -17.29878863	     27.58929485	     37.34540661	     90.00000001	      0.00000000	      0.00000000	     -7.49139033	    -18.55315145	     15.30613818	     39.15630519	     90.00000001	      0.00000000	      0.00000000
      2.17000000	      7.67360790	      6.26394358	     -1.19304081	     -0.39739562	      0.99592262	      0.29587157	     -4.21027463	    -16.88408325	    -17.90270344	     58.19436438	      0.68751363	      1.01568326	    -15.08039939	    -10.81854038	     -7.55370442	     -0.02283865	      7.87715113	    -12.41704499	      1.91403145	     -0.94154749	      0.03340615	     -2.96049976	     14.95815716	     -7.55370442	    -19.57894625	    -11.43251906	      1.42002542	     15.17393289	    -17.22010985	     27.64050330	     37.20666441	     90.00000001	      0.00000000	      0.00000000	     -6.35698040	    -18.82848912	     15.31009463	     39.18602032	     90.00000001	      0.00000000	      0.00000000
      2.18000000	      7.68115870	      6.41506309	     -1.19783429	     -0.39067029	      0.99640597	      0.29466901	     -2.43500905	    -17.33469478	    -18.07883744	     60.39371863	     -0.08614344	      1.05406924	    -14.82579399	    -12.06027016	     -7.55289799	     -0.64485513	      8.17820242	    -12.40006925	      1.57376622	     -0.97057829	      0.02746740	     -2.47892999	     15.54402788	     -7.55289799	    -19.74377178	    -11.61368768	      1.31193327	     14.47589092	    -17.15433674	     27.76910257	     37.09796508	     90.00000001	      0.00000000	      0.00000000	     -5.04810041	    -19.20283653	     15.74479318	     38.90743773	     90.00000001	      0.00000000	      0.00000000
      2.19000000	      7.33175951	      6.59246702	     -1.03491136	     -0.38448608	      0.99626588	      0.29308160	     -0.26236887	    -17.88754825	    -17.65091029	     62.57387029	     -0.08344115	      1.09212006	    -14.61700156	    -13.17372493	     -7.55110788	     -0.61278790	      8.50535121	    -12.60415742	      1.65685859	     -1.07126178	      0.02891764	     -2.17742830	     16.15777576	     -7.55110788	    -19.58798886	    -11.75669139	      1.05497098	     13.76213084	    -17.09802364	     27.72165614	     37.11122155	     90.00000001	      0.00000000	      0.00000000	     -3.71543832	    -19.73343961	     16.80533175	     38.81189325	     90.00000001	      0.00000000	      0.00000000
